<?xml version="1.0" encoding="UTF-8" standalone="no"?>
<svg
   width="544.5"
   height="198"
   viewBox="0 0 544.5 198"
   fill="none"
   version="1.1"
   id="svg123"
   sodipodi:docname="logo -sm.svg"
   inkscape:version="1.2.2 (b0a8486541, 2022-12-01)"
   xmlns:inkscape="http://www.inkscape.org/namespaces/inkscape"
   xmlns:sodipodi="http://sodipodi.sourceforge.net/DTD/sodipodi-0.dtd"
   xmlns="http://www.w3.org/2000/svg"
   xmlns:svg="http://www.w3.org/2000/svg">
  <sodipodi:namedview
     id="namedview125"
     pagecolor="#ffffff"
     bordercolor="#000000"
     borderopacity="0.25"
     inkscape:showpageshadow="2"
     inkscape:pageopacity="0.0"
     inkscape:pagecheckerboard="0"
     inkscape:deskcolor="#d1d1d1"
     showgrid="false"
     inkscape:zoom="3.7241379"
     inkscape:cx="492.46296"
     inkscape:cy="162.99074"
     inkscape:window-width="1366"
     inkscape:window-height="700"
     inkscape:window-x="0"
     inkscape:window-y="31"
     inkscape:window-maximized="1"
     inkscape:current-layer="svg123" />
  <g
     clip-path="url(#clip0_1205_31)"
     id="g116">
    <g
       id="g304">
      <path
         d="m 79.72,63.96 c 0,17.58 7.2,33.57 18.8,45.17 11.6,11.6 27.59,18.8 45.17,18.8 17.58,0 33.57,-7.2 45.17,-18.8 11.6,-11.6 18.8,-27.59 18.8,-45.17 l 0.05,-14.14 c 0,-3.68 3.01,-6.69 6.69,-6.69 h 6.04 c 3.68,0 6.69,3.01 6.69,6.69 v 14.14 c 0,22.96 -9.38,43.82 -24.5,58.94 -15.12,15.12 -35.98,24.5 -58.94,24.5 -22.96,0 -43.82,-9.38 -58.94,-24.5 C 69.63,107.78 60.25,86.92 60.25,63.96 L 60.3,49.82 c 0,-3.68 3.01,-6.69 6.69,-6.69 h 6.04 c 3.68,0 6.69,3.01 6.69,6.69 z"
         fill="#3f526f"
         id="path2" />
      <path
         fill-rule="evenodd"
         clip-rule="evenodd"
         d="m 232.76,94.89 c 0,-6.87 1.28,-13.25 3.84,-19.17 2.55,-5.92 6.06,-11.1 10.52,-15.56 4.46,-4.45 9.68,-7.96 15.67,-10.52 5.99,-2.56 12.34,-3.83 19.06,-3.83 6.87,0 13.26,1.28 19.17,3.83 5.92,2.56 11.14,6.06 15.67,10.52 4.53,4.46 8.07,9.64 10.63,15.56 2.56,5.92 3.83,12.31 3.83,19.17 v 42.58 c 0,3.69 -3.02,6.71 -6.72,6.71 h -6.06 c -3.7,0 -6.72,-3.02 -6.72,-6.72 V 94.88 c 0,-4.09 -0.77,-7.92 -2.3,-11.5 -1.54,-3.58 -3.65,-6.72 -6.35,-9.42 -2.7,-2.7 -5.88,-4.82 -9.53,-6.35 -3.65,-1.53 -7.52,-2.3 -11.62,-2.3 -4.09,0 -7.92,0.77 -11.5,2.3 -3.58,1.54 -6.72,3.65 -9.42,6.35 -2.7,2.7 -4.82,5.84 -6.35,9.42 -1.53,3.58 -2.3,7.41 -2.3,11.5 v 42.58 c 0,3.7 -3.02,6.72 -6.72,6.72 h -6.06 c -3.7,0 -6.72,-3.02 -6.72,-6.72 z"
         fill="#3f526f"
         id="path4" />
      <path
         fill-rule="evenodd"
         clip-rule="evenodd"
         d="m 122.33,3.11 c 7.72,0 13.98,6.26 13.98,13.98 0,7.72 -6.26,13.98 -13.98,13.98 -7.72,0 -13.98,-6.26 -13.98,-13.98 0,-7.72 6.26,-13.98 13.98,-13.98 z"
         fill="#e70004"
         id="path6" />
      <path
         fill-rule="evenodd"
         clip-rule="evenodd"
         d="m 165.06,3.11 c 7.72,0 13.98,6.26 13.98,13.98 0,7.72 -6.26,13.98 -13.98,13.98 -7.72,0 -13.98,-6.26 -13.98,-13.98 0,-7.72 6.25,-13.98 13.98,-13.98 z"
         fill="#e70004"
         id="path8" />
      <path
         fill-rule="evenodd"
         clip-rule="evenodd"
         d="m 50,25.87 c -4.08,0 -7.97,0.77 -11.61,2.3 -3.65,1.53 -6.83,3.65 -9.53,6.35 -2.7,2.7 -4.82,5.84 -6.35,9.42 -1.53,3.58 -2.3,7.41 -2.3,11.5 v 10.08 h 24.57 c 3.7,0 6.72,3.02 6.72,6.72 v 3.03 3.03 c 0,3.7 -3.02,6.72 -6.72,6.72 H 20.2 v 10.08 42.36 c 0,3.7 -3.02,6.72 -6.72,6.72 H 7.42001 c -3.7,0 -6.719998,-3.02 -6.719998,-6.72 V 95.1 75.27 55.44 c 0,-6.87 1.279998,-13.25 3.829998,-19.17 C 7.09001,30.35 10.63,25.17 15.16,20.71 19.69,16.26 24.95,12.74 30.93,10.19 36.91,7.64 43.27,6.36 49.99,6.36 h 23 c 3.7,0 6.72,3.02 6.72,6.72 v 6.06 c 0,3.7 -3.02,6.72 -6.72,6.72 z"
         fill="#3f526f"
         id="path10" />
      <path
         fill-rule="evenodd"
         clip-rule="evenodd"
         d="m 436.62,69.83 c 3.7,0 6.72,3.02 6.72,6.72 v 6.06 c 0,3.7 -3.02,6.72 -6.72,6.72 h -43.1 c -3.7,0 -6.72,-3.02 -6.72,-6.72 v -6.06 c 0,-3.7 3.02,-6.72 6.72,-6.72 z m -4.84,-36.67 h -9.22 -17.1 c -12.76,0 -24.36,5.23 -32.78,13.65 -8.42,8.42 -13.64,20.02 -13.64,32.78 0,12.76 5.23,24.36 13.64,32.78 8.42,8.42 20.02,13.65 32.78,13.65 h 17.1 9.22 v 0.02 l 4.84,0.01 c 3.7,0 6.72,3.02 6.72,6.72 v 6.03 c 0,3.7 -3.02,6.72 -6.72,6.72 h -4.84 -9.22 -17.1 c -18.14,0 -34.63,-7.41 -46.57,-19.36 -11.94,-11.95 -19.36,-28.43 -19.36,-46.57 0,-18.14 7.41,-34.63 19.36,-46.57 11.95,-11.94 28.43,-19.36 46.57,-19.36 h 17.1 9.22 v 0.02 l 4.84,0.01 c 3.7,0 6.72,3.02 6.72,6.72 v 6.03 c 0,3.7 -3.02,6.72 -6.72,6.72 z"
         fill="#e70004"
         id="path12" />
      <path
         fill-rule="evenodd"
         clip-rule="evenodd"
         d="m 454.69,53.33 30.94,41.11 -30.31,40.27 -3.3,4.39 c -1.8,2.39 0.06,6.3 3.32,6.3 h 10.86 c 4.47,0 6.9,-1.89 9.29,-5.06 l 4.24,-5.63 18.11,-24.06 18.11,24.06 4.24,5.63 c 2.39,3.17 4.82,5.06 9.29,5.06 h 10.86 c 3.27,0 5.12,-3.92 3.32,-6.3 l -3.3,-4.39 -30.31,-40.27 30.94,-41.11 c 1.8,-2.39 -0.06,-6.3 -3.32,-6.3 H 526.8 c -4.47,0 -6.9,1.89 -9.29,5.06 L 497.84,78.23 478.17,52.09 c -2.39,-3.17 -4.82,-5.06 -9.29,-5.06 h -10.86 c -3.28,-0.01 -5.13,3.91 -3.33,6.3 z"
         fill="#e70004"
         id="path14" />
      <path
         d="m 239.55,157.6 v 8.38 c 1.06,-1.07 2.15,-1.89 3.25,-2.46 1.11,-0.57 2.47,-0.85 4.11,-0.85 1.88,0 3.53,0.43 4.94,1.3 1.42,0.86 2.52,2.12 3.3,3.76 0.78,1.64 1.17,3.59 1.17,5.84 0,1.66 -0.22,3.19 -0.65,4.57 -0.44,1.39 -1.07,2.59 -1.9,3.61 -0.83,1.02 -1.83,1.81 -3.02,2.36 -1.18,0.56 -2.48,0.83 -3.91,0.83 -0.87,0 -1.69,-0.1 -2.46,-0.3 -0.77,-0.2 -1.42,-0.47 -1.96,-0.79 -0.54,-0.33 -1,-0.67 -1.38,-1.02 -0.38,-0.35 -0.88,-0.87 -1.5,-1.57 v 0.54 c 0,1.03 -0.26,1.81 -0.77,2.34 -0.51,0.53 -1.16,0.79 -1.95,0.79 -0.8,0 -1.44,-0.26 -1.92,-0.79 -0.48,-0.53 -0.72,-1.31 -0.72,-2.34 v -23.97 c 0,-1.11 0.23,-1.95 0.69,-2.52 0.46,-0.57 1.11,-0.85 1.94,-0.85 0.87,0 1.54,0.27 2.01,0.81 0.47,0.54 0.73,1.32 0.73,2.33 z m 0.27,16.31 c 0,2.18 0.51,3.86 1.54,5.04 1.03,1.17 2.38,1.76 4.05,1.76 1.42,0 2.65,-0.6 3.68,-1.8 1.03,-1.2 1.54,-2.92 1.54,-5.16 0,-1.45 -0.21,-2.69 -0.64,-3.74 -0.43,-1.04 -1.04,-1.85 -1.82,-2.42 -0.79,-0.57 -1.71,-0.85 -2.76,-0.85 -1.08,0 -2.04,0.29 -2.88,0.85 -0.84,0.57 -1.51,1.39 -1.99,2.47 -0.48,1.07 -0.72,2.36 -0.72,3.85 z"
         fill="#3f526f"
         id="path16" />
      <path
         d="m 265.53,185.63 0.52,-1.23 -6.97,-17.01 c -0.43,-0.98 -0.64,-1.69 -0.64,-2.13 0,-0.47 0.12,-0.9 0.37,-1.31 0.25,-0.41 0.59,-0.72 1.03,-0.96 0.44,-0.24 0.89,-0.36 1.36,-0.36 0.81,0 1.43,0.25 1.84,0.75 0.42,0.5 0.78,1.22 1.1,2.16 l 4.79,13.51 4.54,-12.57 c 0.36,-1.02 0.68,-1.82 0.97,-2.39 0.29,-0.58 0.6,-0.96 0.92,-1.17 0.32,-0.2 0.78,-0.3 1.38,-0.3 0.43,0 0.84,0.11 1.23,0.33 0.39,0.22 0.7,0.52 0.91,0.89 0.21,0.38 0.32,0.77 0.32,1.19 -0.05,0.25 -0.14,0.62 -0.27,1.09 -0.12,0.47 -0.28,0.94 -0.46,1.43 l -7.38,18.74 c -0.64,1.65 -1.26,2.94 -1.87,3.88 -0.61,0.94 -1.41,1.66 -2.42,2.16 -1,0.5 -2.35,0.75 -4.05,0.75 -1.66,0 -2.9,-0.17 -3.73,-0.52 -0.83,-0.35 -1.24,-0.99 -1.24,-1.91 0,-0.63 0.2,-1.12 0.59,-1.46 0.39,-0.34 0.98,-0.51 1.75,-0.51 0.3,0 0.6,0.04 0.89,0.12 0.36,0.08 0.67,0.12 0.93,0.12 0.65,0 1.16,-0.09 1.53,-0.28 0.37,-0.19 0.71,-0.51 1.01,-0.98 0.32,-0.45 0.66,-1.13 1.05,-2.03 z"
         fill="#3f526f"
         id="path18" />
      <path
         d="m 312.49,159.57 h -12.13 v 7.54 h 10.14 c 0.94,0 1.64,0.2 2.1,0.61 0.46,0.41 0.69,0.96 0.69,1.64 0,0.68 -0.24,1.23 -0.71,1.63 -0.47,0.4 -1.17,0.6 -2.09,0.6 h -10.14 v 9.71 c 0,1.23 -0.29,2.15 -0.86,2.75 -0.57,0.6 -1.31,0.89 -2.21,0.89 -0.91,0 -1.66,-0.3 -2.23,-0.91 -0.57,-0.6 -0.86,-1.51 -0.86,-2.73 v -22.68 c 0,-0.86 0.13,-1.56 0.39,-2.1 0.26,-0.54 0.67,-0.94 1.23,-1.19 0.56,-0.25 1.28,-0.37 2.15,-0.37 h 14.51 c 0.98,0 1.71,0.21 2.19,0.63 0.48,0.42 0.72,0.97 0.72,1.66 0,0.7 -0.24,1.26 -0.72,1.68 -0.46,0.43 -1.19,0.64 -2.17,0.64 z"
         fill="#3f526f"
         id="path20" />
      <path
         d="m 334.28,181.85 v -0.7 c -0.68,0.83 -1.39,1.53 -2.13,2.09 -0.75,0.56 -1.56,0.98 -2.45,1.26 -0.88,0.28 -1.89,0.41 -3.03,0.41 -1.37,0 -2.6,-0.28 -3.68,-0.83 -1.08,-0.55 -1.92,-1.31 -2.52,-2.27 -0.71,-1.17 -1.06,-2.84 -1.06,-5.03 V 165.9 c 0,-1.1 0.25,-1.92 0.77,-2.46 0.52,-0.54 1.19,-0.81 2.03,-0.81 0.86,0 1.55,0.28 2.07,0.83 0.53,0.55 0.79,1.37 0.79,2.45 v 8.79 c 0,1.27 0.11,2.34 0.33,3.21 0.22,0.87 0.62,1.54 1.19,2.03 0.57,0.49 1.35,0.73 2.33,0.73 0.95,0 1.85,-0.27 2.7,-0.82 0.84,-0.55 1.46,-1.27 1.84,-2.15 0.32,-0.78 0.48,-2.48 0.48,-5.11 v -6.68 c 0,-1.08 0.26,-1.9 0.79,-2.45 0.53,-0.55 1.21,-0.83 2.05,-0.83 0.84,0 1.52,0.27 2.03,0.81 0.51,0.54 0.77,1.36 0.77,2.46 v 15.9 c 0,1.05 -0.25,1.83 -0.74,2.35 -0.49,0.52 -1.12,0.78 -1.9,0.78 -0.78,0 -1.41,-0.27 -1.92,-0.81 -0.51,-0.54 -0.74,-1.29 -0.74,-2.27 z"
         fill="#3f526f"
         id="path22" />
      <path
         d="m 350.37,165.66 v 0.66 c 1,-1.27 2.08,-2.21 3.27,-2.8 1.18,-0.6 2.54,-0.9 4.07,-0.9 1.49,0 2.83,0.32 4,0.95 1.17,0.63 2.05,1.52 2.63,2.67 0.37,0.67 0.61,1.39 0.73,2.17 0.11,0.78 0.17,1.77 0.17,2.98 v 10.21 c 0,1.1 -0.26,1.93 -0.78,2.49 -0.52,0.56 -1.19,0.84 -2.02,0.84 -0.84,0 -1.53,-0.29 -2.05,-0.87 -0.52,-0.58 -0.79,-1.4 -0.79,-2.47 v -9.15 c 0,-1.81 -0.26,-3.19 -0.78,-4.15 -0.52,-0.96 -1.55,-1.44 -3.1,-1.44 -1.01,0 -1.93,0.29 -2.76,0.87 -0.83,0.58 -1.44,1.38 -1.83,2.4 -0.28,0.82 -0.41,2.35 -0.41,4.58 v 6.88 c 0,1.11 -0.27,1.95 -0.8,2.5 -0.53,0.56 -1.22,0.83 -2.06,0.83 -0.82,0 -1.49,-0.29 -2.01,-0.87 -0.53,-0.58 -0.79,-1.4 -0.79,-2.47 v -15.86 c 0,-1.05 0.23,-1.83 0.71,-2.34 0.47,-0.52 1.11,-0.77 1.93,-0.77 0.5,0 0.95,0.11 1.35,0.34 0.4,0.23 0.72,0.57 0.96,1.03 0.24,0.48 0.36,1.04 0.36,1.69 z"
         fill="#3f526f"
         id="path24" />
      <path
         d="m 401.91,159.57 h -13.87 v 7.24 h 12.77 c 0.94,0 1.64,0.2 2.1,0.61 0.46,0.41 0.69,0.95 0.69,1.62 0,0.67 -0.23,1.22 -0.68,1.64 -0.46,0.42 -1.16,0.63 -2.11,0.63 h -12.77 v 8.38 h 14.35 c 0.97,0 1.7,0.22 2.19,0.65 0.49,0.44 0.74,1.02 0.74,1.74 0,0.7 -0.25,1.26 -0.74,1.7 -0.49,0.44 -1.22,0.65 -2.19,0.65 h -16.73 c -1.34,0 -2.3,-0.29 -2.89,-0.86 -0.59,-0.58 -0.88,-1.51 -0.88,-2.79 v -22.16 c 0,-0.86 0.13,-1.56 0.39,-2.1 0.26,-0.54 0.67,-0.94 1.23,-1.19 0.56,-0.25 1.27,-0.37 2.15,-0.37 h 16.25 c 0.98,0 1.71,0.21 2.19,0.63 0.48,0.42 0.71,0.97 0.71,1.66 0,0.7 -0.24,1.26 -0.71,1.68 -0.48,0.43 -1.21,0.64 -2.19,0.64 z"
         fill="#3f526f"
         id="path26" />
      <path
         d="m 422.09,182.67 -4.1,-5.85 -4.21,5.85 c -0.61,0.82 -1.12,1.4 -1.54,1.75 -0.42,0.35 -0.96,0.52 -1.61,0.52 -0.72,0 -1.33,-0.22 -1.83,-0.65 -0.5,-0.44 -0.76,-0.94 -0.76,-1.5 0,-0.58 0.39,-1.4 1.16,-2.47 l 5.12,-7.12 -4.54,-5.93 c -0.79,-0.98 -1.18,-1.83 -1.18,-2.55 0,-0.56 0.23,-1.05 0.71,-1.47 0.47,-0.42 1.08,-0.62 1.84,-0.62 0.66,0 1.21,0.18 1.65,0.54 0.44,0.36 0.94,0.93 1.52,1.71 l 3.67,4.87 3.57,-4.87 c 0.59,-0.8 1.11,-1.38 1.54,-1.73 0.43,-0.35 0.98,-0.52 1.63,-0.52 0.75,0 1.36,0.21 1.86,0.61 0.49,0.41 0.74,0.9 0.74,1.48 0,0.42 -0.1,0.81 -0.3,1.2 -0.2,0.38 -0.51,0.83 -0.92,1.36 l -4.54,5.93 5.12,7.12 c 0.8,1.11 1.2,1.95 1.2,2.51 0,0.58 -0.25,1.07 -0.75,1.49 -0.5,0.42 -1.11,0.62 -1.84,0.62 -0.65,0 -1.2,-0.18 -1.65,-0.54 -0.47,-0.37 -0.98,-0.95 -1.56,-1.74 z"
         fill="#3f526f"
         id="path28" />
      <path
         d="m 437.16,165.7 v 0.66 c 1.06,-1.27 2.17,-2.21 3.32,-2.8 1.15,-0.6 2.45,-0.89 3.9,-0.89 1.74,0 3.34,0.44 4.81,1.31 1.46,0.87 2.62,2.14 3.47,3.82 0.85,1.68 1.28,3.66 1.28,5.95 0,1.69 -0.25,3.24 -0.74,4.65 -0.49,1.41 -1.17,2.6 -2.02,3.56 -0.86,0.96 -1.87,1.7 -3.04,2.21 -1.17,0.52 -2.42,0.77 -3.76,0.77 -1.62,0 -2.97,-0.32 -4.07,-0.95 -1.1,-0.63 -2.15,-1.55 -3.14,-2.77 v 8.24 c 0,2.41 -0.91,3.62 -2.72,3.62 -1.07,0 -1.77,-0.31 -2.12,-0.93 -0.35,-0.62 -0.52,-1.53 -0.52,-2.72 v -23.68 c 0,-1.05 0.24,-1.83 0.71,-2.34 0.47,-0.52 1.11,-0.77 1.93,-0.77 0.8,0 1.45,0.27 1.96,0.79 0.5,0.52 0.75,1.28 0.75,2.27 z m 11.09,7.98 c 0,-1.45 -0.23,-2.69 -0.68,-3.73 -0.45,-1.04 -1.09,-1.84 -1.9,-2.39 -0.81,-0.55 -1.7,-0.83 -2.68,-0.83 -1.56,0 -2.88,0.6 -3.95,1.79 -1.07,1.19 -1.61,2.95 -1.61,5.27 0,2.18 0.53,3.88 1.6,5.1 1.06,1.21 2.38,1.82 3.96,1.82 0.94,0 1.81,-0.26 2.61,-0.79 0.8,-0.53 1.44,-1.32 1.93,-2.38 0.48,-1.07 0.72,-2.35 0.72,-3.86 z"
         fill="#3f526f"
         id="path30" />
      <path
         d="m 464.09,177.02 v 4.58 c 0,1.11 -0.27,1.95 -0.81,2.5 -0.54,0.56 -1.22,0.83 -2.05,0.83 -0.82,0 -1.49,-0.28 -2.01,-0.84 -0.52,-0.56 -0.79,-1.39 -0.79,-2.49 v -15.28 c 0,-2.47 0.92,-3.7 2.76,-3.7 0.94,0 1.62,0.29 2.03,0.87 0.42,0.58 0.64,1.43 0.68,2.55 0.68,-1.13 1.37,-1.98 2.08,-2.55 0.71,-0.57 1.66,-0.87 2.85,-0.87 1.19,0 2.34,0.29 3.46,0.87 1.12,0.58 1.68,1.34 1.68,2.29 0,0.67 -0.24,1.22 -0.71,1.66 -0.48,0.44 -0.99,0.65 -1.54,0.65 -0.21,0 -0.71,-0.12 -1.5,-0.37 -0.79,-0.25 -1.5,-0.37 -2.1,-0.37 -0.83,0 -1.51,0.21 -2.03,0.63 -0.53,0.42 -0.93,1.05 -1.22,1.88 -0.29,0.83 -0.49,1.82 -0.6,2.97 -0.12,1.15 -0.18,2.54 -0.18,4.19 z"
         fill="#3f526f"
         id="path32" />
      <path
         d="m 491.81,175.13 h -11.07 c 0.01,1.25 0.27,2.35 0.78,3.3 0.5,0.95 1.17,1.67 2.01,2.15 0.84,0.48 1.76,0.72 2.77,0.72 0.68,0 1.3,-0.08 1.86,-0.23 0.56,-0.15 1.1,-0.39 1.63,-0.72 0.53,-0.33 1.01,-0.68 1.45,-1.06 0.44,-0.38 1.02,-0.88 1.72,-1.53 0.29,-0.24 0.71,-0.36 1.24,-0.36 0.58,0 1.05,0.15 1.41,0.46 0.36,0.31 0.54,0.74 0.54,1.31 0,0.5 -0.2,1.08 -0.6,1.74 -0.4,0.66 -1.01,1.3 -1.81,1.91 -0.81,0.61 -1.82,1.12 -3.05,1.52 -1.22,0.4 -2.63,0.6 -4.22,0.6 -3.64,0 -6.46,-1.01 -8.48,-3.02 -2.02,-2.01 -3.03,-4.74 -3.03,-8.18 0,-1.62 0.25,-3.13 0.75,-4.51 0.5,-1.39 1.22,-2.58 2.18,-3.57 0.95,-0.99 2.13,-1.75 3.53,-2.28 1.4,-0.53 2.94,-0.79 4.64,-0.79 2.21,0 4.11,0.45 5.69,1.36 1.58,0.9 2.77,2.07 3.56,3.51 0.79,1.43 1.18,2.89 1.18,4.38 0,1.38 -0.41,2.28 -1.22,2.68 -0.83,0.41 -1.98,0.61 -3.46,0.61 z m -11.07,-3.11 H 491 c -0.14,-1.88 -0.66,-3.28 -1.57,-4.21 -0.91,-0.93 -2.1,-1.4 -3.58,-1.4 -1.41,0 -2.57,0.47 -3.47,1.42 -0.9,0.94 -1.45,2.34 -1.64,4.19 z"
         fill="#3f526f"
         id="path34" />
      <path
         d="m 519.47,177.77 c 0,1.51 -0.38,2.81 -1.14,3.89 -0.76,1.08 -1.88,1.9 -3.37,2.45 -1.49,0.56 -3.29,0.83 -5.42,0.83 -2.03,0 -3.77,-0.3 -5.22,-0.91 -1.45,-0.6 -2.52,-1.36 -3.21,-2.26 -0.69,-0.9 -1.04,-1.81 -1.04,-2.72 0,-0.6 0.22,-1.12 0.66,-1.55 0.44,-0.43 1,-0.64 1.68,-0.64 0.59,0 1.05,0.14 1.37,0.42 0.32,0.28 0.62,0.68 0.91,1.19 0.58,0.98 1.28,1.71 2.08,2.19 0.8,0.48 1.91,0.72 3.31,0.72 1.13,0 2.06,-0.25 2.79,-0.73 0.73,-0.49 1.09,-1.05 1.09,-1.68 0,-0.96 -0.38,-1.67 -1.13,-2.11 -0.75,-0.44 -1.99,-0.86 -3.72,-1.27 -1.95,-0.47 -3.54,-0.96 -4.76,-1.48 -1.22,-0.52 -2.2,-1.2 -2.93,-2.04 -0.73,-0.84 -1.1,-1.88 -1.1,-3.12 0,-1.1 0.34,-2.14 1.02,-3.12 0.68,-0.98 1.68,-1.76 3,-2.34 1.32,-0.58 2.91,-0.88 4.78,-0.88 1.46,0 2.78,0.15 3.95,0.44 1.17,0.29 2.14,0.69 2.92,1.19 0.78,0.5 1.38,1.05 1.78,1.65 0.41,0.6 0.61,1.19 0.61,1.77 0,0.63 -0.22,1.15 -0.65,1.55 -0.44,0.4 -1.05,0.6 -1.86,0.6 -0.58,0 -1.07,-0.16 -1.48,-0.48 -0.41,-0.32 -0.87,-0.8 -1.4,-1.45 -0.43,-0.54 -0.93,-0.97 -1.51,-1.29 -0.58,-0.32 -1.37,-0.48 -2.36,-0.48 -1.02,0 -1.87,0.21 -2.55,0.63 -0.68,0.42 -1.02,0.95 -1.02,1.58 0,0.58 0.25,1.05 0.75,1.42 0.5,0.37 1.17,0.67 2.01,0.92 0.84,0.25 2,0.54 3.48,0.88 1.75,0.42 3.19,0.91 4.3,1.49 1.11,0.58 1.96,1.26 2.53,2.04 0.56,0.8 0.85,1.69 0.85,2.7 z"
         fill="#3f526f"
         id="path36" />
      <path
         d="m 542.48,177.77 c 0,1.51 -0.38,2.81 -1.14,3.89 -0.76,1.08 -1.88,1.9 -3.37,2.45 -1.49,0.56 -3.29,0.83 -5.42,0.83 -2.03,0 -3.77,-0.3 -5.22,-0.91 -1.45,-0.6 -2.52,-1.36 -3.21,-2.26 -0.69,-0.9 -1.04,-1.81 -1.04,-2.72 0,-0.6 0.22,-1.12 0.66,-1.55 0.44,-0.43 1,-0.64 1.68,-0.64 0.59,0 1.05,0.14 1.37,0.42 0.32,0.28 0.62,0.68 0.91,1.19 0.58,0.98 1.28,1.71 2.08,2.19 0.8,0.48 1.91,0.72 3.31,0.72 1.13,0 2.06,-0.25 2.79,-0.73 0.73,-0.49 1.09,-1.05 1.09,-1.68 0,-0.96 -0.38,-1.67 -1.13,-2.11 -0.75,-0.44 -1.99,-0.86 -3.72,-1.27 -1.95,-0.47 -3.54,-0.96 -4.76,-1.48 -1.22,-0.52 -2.2,-1.2 -2.93,-2.04 -0.73,-0.84 -1.1,-1.88 -1.1,-3.12 0,-1.1 0.34,-2.14 1.02,-3.12 0.68,-0.98 1.68,-1.76 3,-2.34 1.32,-0.58 2.91,-0.88 4.78,-0.88 1.46,0 2.78,0.15 3.95,0.44 1.17,0.29 2.14,0.69 2.92,1.19 0.78,0.5 1.38,1.05 1.78,1.65 0.41,0.6 0.61,1.19 0.61,1.77 0,0.63 -0.22,1.15 -0.65,1.55 -0.44,0.4 -1.05,0.6 -1.86,0.6 -0.58,0 -1.07,-0.16 -1.48,-0.48 -0.41,-0.32 -0.87,-0.8 -1.4,-1.45 -0.43,-0.54 -0.93,-0.97 -1.51,-1.29 -0.58,-0.32 -1.37,-0.48 -2.36,-0.48 -1.02,0 -1.87,0.21 -2.55,0.63 -0.68,0.42 -1.02,0.95 -1.02,1.58 0,0.58 0.25,1.05 0.75,1.42 0.5,0.37 1.17,0.67 2.01,0.92 0.84,0.25 2,0.54 3.48,0.88 1.75,0.42 3.19,0.91 4.3,1.49 1.11,0.58 1.96,1.26 2.53,2.04 0.57,0.8 0.85,1.69 0.85,2.7 z"
         fill="#3f526f"
         id="path38" />
    </g>
  </g>
  <defs
     id="defs121">
    <clipPath
       id="clip0_1205_31">
      <rect
         width="1276"
         height="198"
         fill="#ffffff"
         id="rect118"
         x="0"
         y="0" />
    </clipPath>
  </defs>
</svg>
