<svg width="1276" height="198" viewBox="0 0 1276 198" fill="none" xmlns="http://www.w3.org/2000/svg">
<g clip-path="url(#clip0_1205_31)">
<path d="M79.72 63.96C79.72 81.54 86.92 97.53 98.52 109.13C110.12 120.73 126.11 127.93 143.69 127.93C161.27 127.93 177.26 120.73 188.86 109.13C200.46 97.53 207.66 81.54 207.66 63.96L207.71 49.82C207.71 46.14 210.72 43.13 214.4 43.13H220.44C224.12 43.13 227.13 46.14 227.13 49.82V63.96C227.13 86.92 217.75 107.78 202.63 122.9C187.51 138.02 166.65 147.4 143.69 147.4C120.73 147.4 99.87 138.02 84.75 122.9C69.63 107.78 60.25 86.92 60.25 63.96L60.3 49.82C60.3 46.14 63.31 43.13 66.99 43.13H73.03C76.71 43.13 79.72 46.14 79.72 49.82V63.96Z" fill="#3F526F"/>
<path fill-rule="evenodd" clip-rule="evenodd" d="M232.76 94.89C232.76 88.02 234.04 81.64 236.6 75.72C239.15 69.8 242.66 64.62 247.12 60.16C251.58 55.71 256.8 52.2 262.79 49.64C268.78 47.08 275.13 45.81 281.85 45.81C288.72 45.81 295.11 47.09 301.02 49.64C306.94 52.2 312.16 55.7 316.69 60.16C321.22 64.62 324.76 69.8 327.32 75.72C329.88 81.64 331.15 88.03 331.15 94.89V137.47C331.15 141.16 328.13 144.18 324.43 144.18H318.37C314.67 144.18 311.65 141.16 311.65 137.46V94.88C311.65 90.79 310.88 86.96 309.35 83.38C307.81 79.8 305.7 76.66 303 73.96C300.3 71.26 297.12 69.14 293.47 67.61C289.82 66.08 285.95 65.31 281.85 65.31C277.76 65.31 273.93 66.08 270.35 67.61C266.77 69.15 263.63 71.26 260.93 73.96C258.23 76.66 256.11 79.8 254.58 83.38C253.05 86.96 252.28 90.79 252.28 94.88V137.46C252.28 141.16 249.26 144.18 245.56 144.18H239.5C235.8 144.18 232.78 141.16 232.78 137.46L232.76 94.89Z" fill="#3F526F"/>
<path fill-rule="evenodd" clip-rule="evenodd" d="M122.33 3.11C130.05 3.11 136.31 9.37 136.31 17.09C136.31 24.81 130.05 31.07 122.33 31.07C114.61 31.07 108.35 24.81 108.35 17.09C108.35 9.37 114.61 3.11 122.33 3.11Z" fill="#E70004"/>
<path fill-rule="evenodd" clip-rule="evenodd" d="M165.06 3.11C172.78 3.11 179.04 9.37 179.04 17.09C179.04 24.81 172.78 31.07 165.06 31.07C157.34 31.07 151.08 24.81 151.08 17.09C151.08 9.37 157.33 3.11 165.06 3.11Z" fill="#E70004"/>
<path fill-rule="evenodd" clip-rule="evenodd" d="M50 25.87C45.92 25.87 42.03 26.64 38.39 28.17C34.74 29.7 31.56 31.82 28.86 34.52C26.16 37.22 24.04 40.36 22.51 43.94C20.98 47.52 20.21 51.35 20.21 55.44V65.52H44.78C48.48 65.52 51.5 68.54 51.5 72.24V75.27V78.3C51.5 82 48.48 85.02 44.78 85.02H20.2V95.1V137.46C20.2 141.16 17.18 144.18 13.48 144.18H7.42001C3.72001 144.18 0.700012 141.16 0.700012 137.46V95.1V75.27V55.44C0.700012 48.57 1.98001 42.19 4.53001 36.27C7.09001 30.35 10.63 25.17 15.16 20.71C19.69 16.26 24.95 12.74 30.93 10.19C36.91 7.64 43.27 6.36 49.99 6.36H72.99C76.69 6.36 79.71 9.38 79.71 13.08V19.14C79.71 22.84 76.69 25.86 72.99 25.86L50 25.87Z" fill="#3F526F"/>
<path fill-rule="evenodd" clip-rule="evenodd" d="M436.62 69.83C440.32 69.83 443.34 72.85 443.34 76.55V82.61C443.34 86.31 440.32 89.33 436.62 89.33H393.52C389.82 89.33 386.8 86.31 386.8 82.61V76.55C386.8 72.85 389.82 69.83 393.52 69.83H436.62ZM431.78 33.16H422.56H405.46C392.7 33.16 381.1 38.39 372.68 46.81C364.26 55.23 359.04 66.83 359.04 79.59C359.04 92.35 364.27 103.95 372.68 112.37C381.1 120.79 392.7 126.02 405.46 126.02H422.56H431.78V126.04L436.62 126.05C440.32 126.05 443.34 129.07 443.34 132.77V138.8C443.34 142.5 440.32 145.52 436.62 145.52H431.78H422.56H405.46C387.32 145.52 370.83 138.11 358.89 126.16C346.95 114.21 339.53 97.73 339.53 79.59C339.53 61.45 346.94 44.96 358.89 33.02C370.84 21.08 387.32 13.66 405.46 13.66H422.56H431.78V13.68L436.62 13.69C440.32 13.69 443.34 16.71 443.34 20.41V26.44C443.34 30.14 440.32 33.16 436.62 33.16H431.78Z" fill="#E70004"/>
<path fill-rule="evenodd" clip-rule="evenodd" d="M454.69 53.33L485.63 94.44L455.32 134.71L452.02 139.1C450.22 141.49 452.08 145.4 455.34 145.4H466.2C470.67 145.4 473.1 143.51 475.49 140.34L479.73 134.71L497.84 110.65L515.95 134.71L520.19 140.34C522.58 143.51 525.01 145.4 529.48 145.4H540.34C543.61 145.4 545.46 141.48 543.66 139.1L540.36 134.71L510.05 94.44L540.99 53.33C542.79 50.94 540.93 47.03 537.67 47.03H526.8C522.33 47.03 519.9 48.92 517.51 52.09L497.84 78.23L478.17 52.09C475.78 48.92 473.35 47.03 468.88 47.03H458.02C454.74 47.02 452.89 50.94 454.69 53.33Z" fill="#E70004"/>
<path d="M239.55 157.6V165.98C240.61 164.91 241.7 164.09 242.8 163.52C243.91 162.95 245.27 162.67 246.91 162.67C248.79 162.67 250.44 163.1 251.85 163.97C253.27 164.83 254.37 166.09 255.15 167.73C255.93 169.37 256.32 171.32 256.32 173.57C256.32 175.23 256.1 176.76 255.67 178.14C255.23 179.53 254.6 180.73 253.77 181.75C252.94 182.77 251.94 183.56 250.75 184.11C249.57 184.67 248.27 184.94 246.84 184.94C245.97 184.94 245.15 184.84 244.38 184.64C243.61 184.44 242.96 184.17 242.42 183.85C241.88 183.52 241.42 183.18 241.04 182.83C240.66 182.48 240.16 181.96 239.54 181.26V181.8C239.54 182.83 239.28 183.61 238.77 184.14C238.26 184.67 237.61 184.93 236.82 184.93C236.02 184.93 235.38 184.67 234.9 184.14C234.42 183.61 234.18 182.83 234.18 181.8V157.83C234.18 156.72 234.41 155.88 234.87 155.31C235.33 154.74 235.98 154.46 236.81 154.46C237.68 154.46 238.35 154.73 238.82 155.27C239.29 155.81 239.55 156.59 239.55 157.6ZM239.82 173.91C239.82 176.09 240.33 177.77 241.36 178.95C242.39 180.12 243.74 180.71 245.41 180.71C246.83 180.71 248.06 180.11 249.09 178.91C250.12 177.71 250.63 175.99 250.63 173.75C250.63 172.3 250.42 171.06 249.99 170.01C249.56 168.97 248.95 168.16 248.17 167.59C247.38 167.02 246.46 166.74 245.41 166.74C244.33 166.74 243.37 167.03 242.53 167.59C241.69 168.16 241.02 168.98 240.54 170.06C240.06 171.13 239.82 172.42 239.82 173.91Z" fill="#3F526F"/>
<path d="M265.53 185.63L266.05 184.4L259.08 167.39C258.65 166.41 258.44 165.7 258.44 165.26C258.44 164.79 258.56 164.36 258.81 163.95C259.06 163.54 259.4 163.23 259.84 162.99C260.28 162.75 260.73 162.63 261.2 162.63C262.01 162.63 262.63 162.88 263.04 163.38C263.46 163.88 263.82 164.6 264.14 165.54L268.93 179.05L273.47 166.48C273.83 165.46 274.15 164.66 274.44 164.09C274.73 163.51 275.04 163.13 275.36 162.92C275.68 162.72 276.14 162.62 276.74 162.62C277.17 162.62 277.58 162.73 277.97 162.95C278.36 163.17 278.67 163.47 278.88 163.84C279.09 164.22 279.2 164.61 279.2 165.03C279.15 165.28 279.06 165.65 278.93 166.12C278.81 166.59 278.65 167.06 278.47 167.55L271.09 186.29C270.45 187.94 269.83 189.23 269.22 190.17C268.61 191.11 267.81 191.83 266.8 192.33C265.8 192.83 264.45 193.08 262.75 193.08C261.09 193.08 259.85 192.91 259.02 192.56C258.19 192.21 257.78 191.57 257.78 190.65C257.78 190.02 257.98 189.53 258.37 189.19C258.76 188.85 259.35 188.68 260.12 188.68C260.42 188.68 260.72 188.72 261.01 188.8C261.37 188.88 261.68 188.92 261.94 188.92C262.59 188.92 263.1 188.83 263.47 188.64C263.84 188.45 264.18 188.13 264.48 187.66C264.8 187.21 265.14 186.53 265.53 185.63Z" fill="#3F526F"/>
<path d="M312.49 159.57H300.36V167.11H310.5C311.44 167.11 312.14 167.31 312.6 167.72C313.06 168.13 313.29 168.68 313.29 169.36C313.29 170.04 313.05 170.59 312.58 170.99C312.11 171.39 311.41 171.59 310.49 171.59H300.35V181.3C300.35 182.53 300.06 183.45 299.49 184.05C298.92 184.65 298.18 184.94 297.28 184.94C296.37 184.94 295.62 184.64 295.05 184.03C294.48 183.43 294.19 182.52 294.19 181.3V158.62C294.19 157.76 294.32 157.06 294.58 156.52C294.84 155.98 295.25 155.58 295.81 155.33C296.37 155.08 297.09 154.96 297.96 154.96H312.47C313.45 154.96 314.18 155.17 314.66 155.59C315.14 156.01 315.38 156.56 315.38 157.25C315.38 157.95 315.14 158.51 314.66 158.93C314.2 159.36 313.47 159.57 312.49 159.57Z" fill="#3F526F"/>
<path d="M334.28 181.85V181.15C333.6 181.98 332.89 182.68 332.15 183.24C331.4 183.8 330.59 184.22 329.7 184.5C328.82 184.78 327.81 184.91 326.67 184.91C325.3 184.91 324.07 184.63 322.99 184.08C321.91 183.53 321.07 182.77 320.47 181.81C319.76 180.64 319.41 178.97 319.41 176.78V165.9C319.41 164.8 319.66 163.98 320.18 163.44C320.7 162.9 321.37 162.63 322.21 162.63C323.07 162.63 323.76 162.91 324.28 163.46C324.81 164.01 325.07 164.83 325.07 165.91V174.7C325.07 175.97 325.18 177.04 325.4 177.91C325.62 178.78 326.02 179.45 326.59 179.94C327.16 180.43 327.94 180.67 328.92 180.67C329.87 180.67 330.77 180.4 331.62 179.85C332.46 179.3 333.08 178.58 333.46 177.7C333.78 176.92 333.94 175.22 333.94 172.59V165.91C333.94 164.83 334.2 164.01 334.73 163.46C335.26 162.91 335.94 162.63 336.78 162.63C337.62 162.63 338.3 162.9 338.81 163.44C339.32 163.98 339.58 164.8 339.58 165.9V181.8C339.58 182.85 339.33 183.63 338.84 184.15C338.35 184.67 337.72 184.93 336.94 184.93C336.16 184.93 335.53 184.66 335.02 184.12C334.51 183.58 334.28 182.83 334.28 181.85Z" fill="#3F526F"/>
<path d="M350.37 165.66V166.32C351.37 165.05 352.45 164.11 353.64 163.52C354.82 162.92 356.18 162.62 357.71 162.62C359.2 162.62 360.54 162.94 361.71 163.57C362.88 164.2 363.76 165.09 364.34 166.24C364.71 166.91 364.95 167.63 365.07 168.41C365.18 169.19 365.24 170.18 365.24 171.39V181.6C365.24 182.7 364.98 183.53 364.46 184.09C363.94 184.65 363.27 184.93 362.44 184.93C361.6 184.93 360.91 184.64 360.39 184.06C359.87 183.48 359.6 182.66 359.6 181.59V172.44C359.6 170.63 359.34 169.25 358.82 168.29C358.3 167.33 357.27 166.85 355.72 166.85C354.71 166.85 353.79 167.14 352.96 167.72C352.13 168.3 351.52 169.1 351.13 170.12C350.85 170.94 350.72 172.47 350.72 174.7V181.58C350.72 182.69 350.45 183.53 349.92 184.08C349.39 184.64 348.7 184.91 347.86 184.91C347.04 184.91 346.37 184.62 345.85 184.04C345.32 183.46 345.06 182.64 345.06 181.57V165.71C345.06 164.66 345.29 163.88 345.77 163.37C346.24 162.85 346.88 162.6 347.7 162.6C348.2 162.6 348.65 162.71 349.05 162.94C349.45 163.17 349.77 163.51 350.01 163.97C350.25 164.45 350.37 165.01 350.37 165.66Z" fill="#3F526F"/>
<path d="M401.91 159.57H388.04V166.81H400.81C401.75 166.81 402.45 167.01 402.91 167.42C403.37 167.83 403.6 168.37 403.6 169.04C403.6 169.71 403.37 170.26 402.92 170.68C402.46 171.1 401.76 171.31 400.81 171.31H388.04V179.69H402.39C403.36 179.69 404.09 179.91 404.58 180.34C405.07 180.78 405.32 181.36 405.32 182.08C405.32 182.78 405.07 183.34 404.58 183.78C404.09 184.22 403.36 184.43 402.39 184.43H385.66C384.32 184.43 383.36 184.14 382.77 183.57C382.18 182.99 381.89 182.06 381.89 180.78V158.62C381.89 157.76 382.02 157.06 382.28 156.52C382.54 155.98 382.95 155.58 383.51 155.33C384.07 155.08 384.78 154.96 385.66 154.96H401.91C402.89 154.96 403.62 155.17 404.1 155.59C404.58 156.01 404.81 156.56 404.81 157.25C404.81 157.95 404.57 158.51 404.1 158.93C403.62 159.36 402.89 159.57 401.91 159.57Z" fill="#3F526F"/>
<path d="M422.09 182.67L417.99 176.82L413.78 182.67C413.17 183.49 412.66 184.07 412.24 184.42C411.82 184.77 411.28 184.94 410.63 184.94C409.91 184.94 409.3 184.72 408.8 184.29C408.3 183.85 408.04 183.35 408.04 182.79C408.04 182.21 408.43 181.39 409.2 180.32L414.32 173.2L409.78 167.27C408.99 166.29 408.6 165.44 408.6 164.72C408.6 164.16 408.83 163.67 409.31 163.25C409.78 162.83 410.39 162.63 411.15 162.63C411.81 162.63 412.36 162.81 412.8 163.17C413.24 163.53 413.74 164.1 414.32 164.88L417.99 169.75L421.56 164.88C422.15 164.08 422.67 163.5 423.1 163.15C423.53 162.8 424.08 162.63 424.73 162.63C425.48 162.63 426.09 162.84 426.59 163.24C427.08 163.65 427.33 164.14 427.33 164.72C427.33 165.14 427.23 165.53 427.03 165.92C426.83 166.3 426.52 166.75 426.11 167.28L421.57 173.21L426.69 180.33C427.49 181.44 427.89 182.28 427.89 182.84C427.89 183.42 427.64 183.91 427.14 184.33C426.64 184.75 426.03 184.95 425.3 184.95C424.65 184.95 424.1 184.77 423.65 184.41C423.18 184.04 422.67 183.46 422.09 182.67Z" fill="#3F526F"/>
<path d="M437.16 165.7V166.36C438.22 165.09 439.33 164.15 440.48 163.56C441.63 162.96 442.93 162.67 444.38 162.67C446.12 162.67 447.72 163.11 449.19 163.98C450.65 164.85 451.81 166.12 452.66 167.8C453.51 169.48 453.94 171.46 453.94 173.75C453.94 175.44 453.69 176.99 453.2 178.4C452.71 179.81 452.03 181 451.18 181.96C450.32 182.92 449.31 183.66 448.14 184.17C446.97 184.69 445.72 184.94 444.38 184.94C442.76 184.94 441.41 184.62 440.31 183.99C439.21 183.36 438.16 182.44 437.17 181.22V189.46C437.17 191.87 436.26 193.08 434.45 193.08C433.38 193.08 432.68 192.77 432.33 192.15C431.98 191.53 431.81 190.62 431.81 189.43V165.75C431.81 164.7 432.05 163.92 432.52 163.41C432.99 162.89 433.63 162.64 434.45 162.64C435.25 162.64 435.9 162.91 436.41 163.43C436.91 163.95 437.16 164.71 437.16 165.7ZM448.25 173.68C448.25 172.23 448.02 170.99 447.57 169.95C447.12 168.91 446.48 168.11 445.67 167.56C444.86 167.01 443.97 166.73 442.99 166.73C441.43 166.73 440.11 167.33 439.04 168.52C437.97 169.71 437.43 171.47 437.43 173.79C437.43 175.97 437.96 177.67 439.03 178.89C440.09 180.1 441.41 180.71 442.99 180.71C443.93 180.71 444.8 180.45 445.6 179.92C446.4 179.39 447.04 178.6 447.53 177.54C448.01 176.47 448.25 175.19 448.25 173.68Z" fill="#3F526F"/>
<path d="M464.09 177.02V181.6C464.09 182.71 463.82 183.55 463.28 184.1C462.74 184.66 462.06 184.93 461.23 184.93C460.41 184.93 459.74 184.65 459.22 184.09C458.7 183.53 458.43 182.7 458.43 181.6V166.32C458.43 163.85 459.35 162.62 461.19 162.62C462.13 162.62 462.81 162.91 463.22 163.49C463.64 164.07 463.86 164.92 463.9 166.04C464.58 164.91 465.27 164.06 465.98 163.49C466.69 162.92 467.64 162.62 468.83 162.62C470.02 162.62 471.17 162.91 472.29 163.49C473.41 164.07 473.97 164.83 473.97 165.78C473.97 166.45 473.73 167 473.26 167.44C472.78 167.88 472.27 168.09 471.72 168.09C471.51 168.09 471.01 167.97 470.22 167.72C469.43 167.47 468.72 167.35 468.12 167.35C467.29 167.35 466.61 167.56 466.09 167.98C465.56 168.4 465.16 169.03 464.87 169.86C464.58 170.69 464.38 171.68 464.27 172.83C464.15 173.98 464.09 175.37 464.09 177.02Z" fill="#3F526F"/>
<path d="M491.81 175.13H480.74C480.75 176.38 481.01 177.48 481.52 178.43C482.02 179.38 482.69 180.1 483.53 180.58C484.37 181.06 485.29 181.3 486.3 181.3C486.98 181.3 487.6 181.22 488.16 181.07C488.72 180.92 489.26 180.68 489.79 180.35C490.32 180.02 490.8 179.67 491.24 179.29C491.68 178.91 492.26 178.41 492.96 177.76C493.25 177.52 493.67 177.4 494.2 177.4C494.78 177.4 495.25 177.55 495.61 177.86C495.97 178.17 496.15 178.6 496.15 179.17C496.15 179.67 495.95 180.25 495.55 180.91C495.15 181.57 494.54 182.21 493.74 182.82C492.93 183.43 491.92 183.94 490.69 184.34C489.47 184.74 488.06 184.94 486.47 184.94C482.83 184.94 480.01 183.93 477.99 181.92C475.97 179.91 474.96 177.18 474.96 173.74C474.96 172.12 475.21 170.61 475.71 169.23C476.21 167.84 476.93 166.65 477.89 165.66C478.84 164.67 480.02 163.91 481.42 163.38C482.82 162.85 484.36 162.59 486.06 162.59C488.27 162.59 490.17 163.04 491.75 163.95C493.33 164.85 494.52 166.02 495.31 167.46C496.1 168.89 496.49 170.35 496.49 171.84C496.49 173.22 496.08 174.12 495.27 174.52C494.44 174.93 493.29 175.13 491.81 175.13ZM480.74 172.02H491C490.86 170.14 490.34 168.74 489.43 167.81C488.52 166.88 487.33 166.41 485.85 166.41C484.44 166.41 483.28 166.88 482.38 167.83C481.48 168.77 480.93 170.17 480.74 172.02Z" fill="#3F526F"/>
<path d="M519.47 177.77C519.47 179.28 519.09 180.58 518.33 181.66C517.57 182.74 516.45 183.56 514.96 184.11C513.47 184.67 511.67 184.94 509.54 184.94C507.51 184.94 505.77 184.64 504.32 184.03C502.87 183.43 501.8 182.67 501.11 181.77C500.42 180.87 500.07 179.96 500.07 179.05C500.07 178.45 500.29 177.93 500.73 177.5C501.17 177.07 501.73 176.86 502.41 176.86C503 176.86 503.46 177 503.78 177.28C504.1 177.56 504.4 177.96 504.69 178.47C505.27 179.45 505.97 180.18 506.77 180.66C507.57 181.14 508.68 181.38 510.08 181.38C511.21 181.38 512.14 181.13 512.87 180.65C513.6 180.16 513.96 179.6 513.96 178.97C513.96 178.01 513.58 177.3 512.83 176.86C512.08 176.42 510.84 176 509.11 175.59C507.16 175.12 505.57 174.63 504.35 174.11C503.13 173.59 502.15 172.91 501.42 172.07C500.69 171.23 500.32 170.19 500.32 168.95C500.32 167.85 500.66 166.81 501.34 165.83C502.02 164.85 503.02 164.07 504.34 163.49C505.66 162.91 507.25 162.61 509.12 162.61C510.58 162.61 511.9 162.76 513.07 163.05C514.24 163.34 515.21 163.74 515.99 164.24C516.77 164.74 517.37 165.29 517.77 165.89C518.18 166.49 518.38 167.08 518.38 167.66C518.38 168.29 518.16 168.81 517.73 169.21C517.29 169.61 516.68 169.81 515.87 169.81C515.29 169.81 514.8 169.65 514.39 169.33C513.98 169.01 513.52 168.53 512.99 167.88C512.56 167.34 512.06 166.91 511.48 166.59C510.9 166.27 510.11 166.11 509.12 166.11C508.1 166.11 507.25 166.32 506.57 166.74C505.89 167.16 505.55 167.69 505.55 168.32C505.55 168.9 505.8 169.37 506.3 169.74C506.8 170.11 507.47 170.41 508.31 170.66C509.15 170.91 510.31 171.2 511.79 171.54C513.54 171.96 514.98 172.45 516.09 173.03C517.2 173.61 518.05 174.29 518.62 175.07C519.18 175.87 519.47 176.76 519.47 177.77Z" fill="#3F526F"/>
<path d="M542.48 177.77C542.48 179.28 542.1 180.58 541.34 181.66C540.58 182.74 539.46 183.56 537.97 184.11C536.48 184.67 534.68 184.94 532.55 184.94C530.52 184.94 528.78 184.64 527.33 184.03C525.88 183.43 524.81 182.67 524.12 181.77C523.43 180.87 523.08 179.96 523.08 179.05C523.08 178.45 523.3 177.93 523.74 177.5C524.18 177.07 524.74 176.86 525.42 176.86C526.01 176.86 526.47 177 526.79 177.28C527.11 177.56 527.41 177.96 527.7 178.47C528.28 179.45 528.98 180.18 529.78 180.66C530.58 181.14 531.69 181.38 533.09 181.38C534.22 181.38 535.15 181.13 535.88 180.65C536.61 180.16 536.97 179.6 536.97 178.97C536.97 178.01 536.59 177.3 535.84 176.86C535.09 176.42 533.85 176 532.12 175.59C530.17 175.12 528.58 174.63 527.36 174.11C526.14 173.59 525.16 172.91 524.43 172.07C523.7 171.23 523.33 170.19 523.33 168.95C523.33 167.85 523.67 166.81 524.35 165.83C525.03 164.85 526.03 164.07 527.35 163.49C528.67 162.91 530.26 162.61 532.13 162.61C533.59 162.61 534.91 162.76 536.08 163.05C537.25 163.34 538.22 163.74 539 164.24C539.78 164.74 540.38 165.29 540.78 165.89C541.19 166.49 541.39 167.08 541.39 167.66C541.39 168.29 541.17 168.81 540.74 169.21C540.3 169.61 539.69 169.81 538.88 169.81C538.3 169.81 537.81 169.65 537.4 169.33C536.99 169.01 536.53 168.53 536 167.88C535.57 167.34 535.07 166.91 534.49 166.59C533.91 166.27 533.12 166.11 532.13 166.11C531.11 166.11 530.26 166.32 529.58 166.74C528.9 167.16 528.56 167.69 528.56 168.32C528.56 168.9 528.81 169.37 529.31 169.74C529.81 170.11 530.48 170.41 531.32 170.66C532.16 170.91 533.32 171.2 534.8 171.54C536.55 171.96 537.99 172.45 539.1 173.03C540.21 173.61 541.06 174.29 541.63 175.07C542.2 175.87 542.48 176.76 542.48 177.77Z" fill="#3F526F"/>
<path d="M692.39 67.57C691.52 69.14 690.15 70.4 688.29 71.36C686.43 72.32 684.09 72.8 681.26 72.8H675.49V85.66H668.58V52.16H681.26C683.93 52.16 686.19 52.61 688.07 53.5C689.95 54.4 691.35 55.63 692.29 57.2C693.23 58.77 693.7 60.54 693.7 62.53C693.7 64.33 693.26 66.01 692.39 67.57ZM685.21 66.11C686.13 65.26 686.59 64.07 686.59 62.53C686.59 59.27 684.71 57.63 680.97 57.63H675.49V67.37H680.97C682.88 67.38 684.29 66.96 685.21 66.11Z" fill="#3F526F"/>
<path d="M716.35 85.67L708.75 72.61H705.49V85.67H698.58V52.17H711.51C714.17 52.17 716.44 52.63 718.32 53.54C720.2 54.45 721.6 55.68 722.54 57.24C723.48 58.79 723.95 60.53 723.95 62.45C723.95 64.66 723.29 66.65 721.98 68.43C720.66 70.21 718.71 71.43 716.11 72.1L724.35 85.68H716.35V85.67ZM705.49 67.57H711.26C713.14 67.57 714.53 67.13 715.45 66.25C716.37 65.37 716.83 64.15 716.83 62.58C716.83 61.04 716.37 59.85 715.45 59C714.53 58.15 713.13 57.73 711.26 57.73H705.49V67.57Z" fill="#3F526F"/>
<path d="M737.32 83.8C734.62 82.33 732.49 80.29 730.91 77.68C729.33 75.07 728.54 72.12 728.54 68.82C728.54 65.56 729.33 62.62 730.91 60.01C732.49 57.4 734.63 55.36 737.32 53.89C740.02 52.42 742.98 51.68 746.2 51.68C749.46 51.68 752.43 52.42 755.11 53.89C757.79 55.36 759.91 57.4 761.48 60.01C763.04 62.62 763.82 65.55 763.82 68.82C763.82 72.12 763.04 75.07 761.48 77.68C759.92 80.29 757.79 82.33 755.09 83.8C752.39 85.27 749.43 86.01 746.21 86.01C742.99 86.01 740.01 85.27 737.32 83.8ZM751.68 78.64C753.26 77.73 754.49 76.43 755.38 74.73C756.27 73.03 756.71 71.07 756.71 68.83C756.71 66.59 756.27 64.63 755.38 62.95C754.49 61.27 753.26 59.98 751.68 59.09C750.1 58.19 748.28 57.75 746.2 57.75C744.13 57.75 742.29 58.2 740.7 59.09C739.1 59.99 737.86 61.27 736.97 62.95C736.08 64.63 735.64 66.59 735.64 68.83C735.64 71.07 736.08 73.04 736.97 74.73C737.86 76.43 739.1 77.73 740.7 78.64C742.29 79.55 744.13 80.01 746.2 80.01C748.27 80.01 750.1 79.55 751.68 78.64Z" fill="#3F526F"/>
<path d="M799.88 52.17L787.25 85.67H778.86L766.23 52.17H773.63L783.1 78.81L792.52 52.17H799.88Z" fill="#3F526F"/>
<path d="M810.94 52.17V85.67H804.03V52.17H810.94Z" fill="#3F526F"/>
<path d="M839.34 54.23C842.09 55.61 844.21 57.57 845.71 60.11C847.21 62.65 847.96 65.61 847.96 68.97C847.96 72.33 847.21 75.27 845.71 77.78C844.21 80.29 842.09 82.24 839.34 83.61C836.59 84.99 833.41 85.67 829.79 85.67H817.75V52.17H829.79C833.41 52.17 836.59 52.85 839.34 54.23ZM837.93 77.08C839.9 75.16 840.89 72.46 840.89 68.97C840.89 65.48 839.9 62.75 837.93 60.79C835.96 58.82 833.16 57.84 829.54 57.84H824.65V79.97H829.54C833.16 79.96 835.96 79 837.93 77.08Z" fill="#3F526F"/>
<path d="M860.03 52.17V85.67H853.12V52.17H860.03Z" fill="#3F526F"/>
<path d="M896.3 85.67H889.39L873.75 62.68V85.67H866.84V52.12H873.75L889.39 75.16V52.12H896.3V85.67Z" fill="#3F526F"/>
<path d="M927.09 62.25C926.3 60.84 925.21 59.77 923.83 59.03C922.45 58.29 920.84 57.93 918.99 57.93C916.95 57.93 915.14 58.38 913.56 59.27C911.98 60.17 910.75 61.45 909.86 63.11C908.97 64.77 908.53 66.69 908.53 68.87C908.53 71.11 908.98 73.06 909.89 74.73C910.79 76.4 912.05 77.68 913.66 78.57C915.27 79.46 917.15 79.91 919.29 79.91C921.92 79.91 924.08 79.23 925.75 77.87C927.43 76.51 928.53 74.61 929.06 72.18H917.22V67.04H935.87V72.9C935.41 75.24 934.42 77.4 932.91 79.38C931.4 81.36 929.45 82.96 927.06 84.16C924.67 85.36 922 85.96 919.04 85.96C915.72 85.96 912.72 85.23 910.04 83.78C907.36 82.32 905.25 80.3 903.72 77.71C902.19 75.12 901.43 72.17 901.43 68.88C901.43 65.59 902.2 62.63 903.72 60.02C905.25 57.41 907.35 55.38 910.04 53.92C912.72 52.46 915.71 51.74 919 51.74C922.88 51.74 926.25 52.66 929.12 54.5C931.98 56.34 933.95 58.92 935.04 62.25H927.09Z" fill="#3F526F"/>
<path d="M959.66 57.59V65.99H971.26V71.32H959.66V80.2H972.74V85.67H952.76V52.12H972.74V57.59H959.66Z" fill="#3F526F"/>
<path d="M1016.55 52.17V85.67H1009.64V63.88L1000.41 85.67H995.18L985.9 63.88V85.67H979V52.17H986.85L997.81 77.08L1008.76 52.17H1016.55Z" fill="#3F526F"/>
<path d="M1047.17 67.57C1046.3 69.14 1044.93 70.4 1043.07 71.36C1041.21 72.32 1038.87 72.8 1036.04 72.8H1030.27V85.66H1023.36V52.16H1036.04C1038.71 52.16 1040.97 52.61 1042.85 53.5C1044.73 54.4 1046.13 55.63 1047.07 57.2C1048.01 58.77 1048.48 60.54 1048.48 62.53C1048.47 64.33 1048.04 66.01 1047.17 67.57ZM1039.99 66.11C1040.91 65.26 1041.37 64.07 1041.37 62.53C1041.37 59.27 1039.49 57.63 1035.75 57.63H1030.27V67.37H1035.75C1037.65 67.38 1039.07 66.96 1039.99 66.11Z" fill="#3F526F"/>
<path d="M1060.27 80.34H1071.62V85.67H1053.36V52.17H1060.27V80.34Z" fill="#3F526F"/>
<path d="M1083.11 83.8C1080.41 82.33 1078.28 80.29 1076.7 77.68C1075.12 75.07 1074.33 72.12 1074.33 68.82C1074.33 65.56 1075.12 62.62 1076.7 60.01C1078.28 57.4 1080.42 55.36 1083.11 53.89C1085.81 52.42 1088.77 51.68 1091.99 51.68C1095.25 51.68 1098.22 52.42 1100.9 53.89C1103.58 55.36 1105.7 57.4 1107.27 60.01C1108.83 62.62 1109.61 65.55 1109.61 68.82C1109.61 72.12 1108.83 75.07 1107.27 77.68C1105.71 80.29 1103.58 82.33 1100.88 83.8C1098.18 85.27 1095.22 86.01 1092 86.01C1088.78 86.01 1085.81 85.27 1083.11 83.8ZM1097.47 78.64C1099.05 77.73 1100.28 76.43 1101.17 74.73C1102.06 73.03 1102.5 71.07 1102.5 68.83C1102.5 66.59 1102.06 64.63 1101.17 62.95C1100.28 61.27 1099.05 59.98 1097.47 59.09C1095.89 58.19 1094.07 57.75 1091.99 57.75C1089.92 57.75 1088.08 58.2 1086.49 59.09C1084.89 59.99 1083.65 61.27 1082.76 62.95C1081.87 64.63 1081.43 66.59 1081.43 68.83C1081.43 71.07 1081.87 73.04 1082.76 74.73C1083.65 76.43 1084.89 77.73 1086.49 78.64C1088.08 79.55 1089.92 80.01 1091.99 80.01C1094.07 80.01 1095.89 79.55 1097.47 78.64Z" fill="#3F526F"/>
<path d="M1142.13 52.17L1130.49 74.01V85.67H1123.58V74.01L1111.89 52.17H1119.69L1127.09 67.48L1134.44 52.17H1142.13Z" fill="#3F526F"/>
<path d="M1153.03 57.59V65.99H1164.63V71.32H1153.03V80.2H1166.11V85.67H1146.13V52.12H1166.11V57.59H1153.03Z" fill="#3F526F"/>
<path d="M1179.28 57.59V65.99H1190.88V71.32H1179.28V80.2H1192.36V85.67H1172.38V52.12H1192.36V57.59H1179.28Z" fill="#3F526F"/>
<path d="M692.91 132.6C694.16 134.14 694.79 135.9 694.79 137.88C694.79 139.67 694.34 141.25 693.43 142.61C692.52 143.97 691.22 145.03 689.51 145.8C687.8 146.57 685.78 146.95 683.44 146.95H668.59V113.45H682.8C685.14 113.45 687.15 113.82 688.84 114.55C690.53 115.29 691.82 116.31 692.69 117.62C693.56 118.93 694 120.42 694 122.08C694 124.03 693.46 125.66 692.4 126.98C691.33 128.29 689.91 129.22 688.13 129.76C690.06 130.12 691.66 131.06 692.91 132.6ZM675.49 127.27H681.81C683.45 127.27 684.72 126.91 685.61 126.19C686.5 125.47 686.94 124.44 686.94 123.09C686.94 121.75 686.5 120.71 685.61 119.97C684.72 119.23 683.45 118.87 681.81 118.87H675.49V127.27ZM686.37 140.32C687.31 139.55 687.78 138.46 687.78 137.06C687.78 135.62 687.29 134.49 686.3 133.68C685.31 132.86 683.98 132.46 682.3 132.46H675.49V141.48H682.45C684.13 141.48 685.43 141.09 686.37 140.32Z" fill="#3F526F"/>
<path d="M707.22 118.87V127.27H718.82V132.6H707.22V141.48H720.3V146.95H700.32V113.4H720.3V118.87H707.22Z" fill="#3F526F"/>
<path d="M756.02 146.95H749.11L733.47 123.96V146.95H726.56V113.4H733.47L749.11 136.44V113.4H756.02V146.95Z" fill="#3F526F"/>
<path d="M769.74 118.87V127.27H781.34V132.6H769.74V141.48H782.82V146.95H762.84V113.4H782.82V118.87H769.74Z" fill="#3F526F"/>
<path d="M810.35 113.44V118.86H795.99V127.45H806.99V132.78H795.99V146.94H789.08V113.44H810.35Z" fill="#3F526F"/>
<path d="M822.14 113.44V146.94H815.23V113.44H822.14Z" fill="#3F526F"/>
<path d="M852.39 113.44V118.86H843.21V146.94H836.3V118.86H827.12V113.44H852.39Z" fill="#3F526F"/>
<path d="M862.82 146.08C860.9 145.28 859.37 144.13 858.26 142.62C857.14 141.12 856.57 139.34 856.53 137.29H863.93C864.03 138.67 864.53 139.75 865.43 140.55C866.33 141.35 867.58 141.75 869.16 141.75C870.77 141.75 872.04 141.37 872.96 140.62C873.88 139.87 874.34 138.88 874.34 137.67C874.34 136.68 874.03 135.86 873.4 135.22C872.78 134.58 871.99 134.08 871.06 133.71C870.13 133.34 868.83 132.93 867.19 132.49C864.95 131.85 863.14 131.22 861.74 130.59C860.34 129.97 859.14 129.02 858.14 127.76C857.14 126.5 856.64 124.81 856.64 122.7C856.64 120.72 857.15 118.99 858.17 117.52C859.19 116.05 860.62 114.92 862.46 114.14C864.3 113.36 866.41 112.96 868.78 112.96C872.33 112.96 875.22 113.8 877.44 115.48C879.66 117.16 880.89 119.5 881.12 122.51H873.52C873.45 121.36 872.95 120.41 872.02 119.65C871.09 118.89 869.84 118.52 868.3 118.52C866.95 118.52 865.87 118.86 865.07 119.53C864.26 120.2 863.86 121.18 863.86 122.46C863.86 123.36 864.16 124.1 864.77 124.69C865.38 125.28 866.13 125.76 867.04 126.13C867.94 126.5 869.22 126.92 870.86 127.4C873.1 128.04 874.92 128.68 876.34 129.32C877.75 129.96 878.97 130.92 879.99 132.2C881.01 133.48 881.52 135.16 881.52 137.24C881.52 139.03 881.04 140.7 880.09 142.23C879.13 143.77 877.74 144.99 875.9 145.9C874.06 146.81 871.87 147.27 869.34 147.27C866.91 147.28 864.75 146.88 862.82 146.08Z" fill="#3F526F"/>
<path d="M920.48 113.44V118.86H906.12V127.45H917.12V132.78H906.12V146.94H899.21V113.44H920.48Z" fill="#3F526F"/>
<path d="M932.47 145.07C929.77 143.6 927.64 141.56 926.06 138.95C924.48 136.34 923.69 133.39 923.69 130.09C923.69 126.83 924.48 123.89 926.06 121.28C927.64 118.67 929.78 116.63 932.47 115.16C935.17 113.69 938.13 112.95 941.35 112.95C944.61 112.95 947.58 113.69 950.26 115.16C952.94 116.63 955.06 118.67 956.63 121.28C958.19 123.89 958.97 126.82 958.97 130.09C958.97 133.39 958.19 136.34 956.63 138.95C955.07 141.56 952.94 143.6 950.24 145.07C947.54 146.54 944.58 147.28 941.36 147.28C938.14 147.28 935.17 146.55 932.47 145.07ZM946.83 139.91C948.41 139 949.64 137.7 950.53 136C951.42 134.3 951.86 132.34 951.86 130.1C951.86 127.86 951.42 125.9 950.53 124.22C949.64 122.54 948.41 121.25 946.83 120.36C945.25 119.47 943.43 119.02 941.35 119.02C939.28 119.02 937.44 119.47 935.85 120.36C934.25 121.26 933.01 122.54 932.12 124.22C931.23 125.9 930.79 127.86 930.79 130.1C930.79 132.34 931.23 134.31 932.12 136C933.01 137.7 934.25 139 935.85 139.91C937.44 140.82 939.28 141.28 941.35 141.28C943.42 141.28 945.25 140.83 946.83 139.91Z" fill="#3F526F"/>
<path d="M981.86 146.95L974.26 133.89H971V146.95H964.09V113.45H977.02C979.68 113.45 981.95 113.91 983.83 114.82C985.71 115.73 987.11 116.96 988.05 118.52C988.99 120.07 989.46 121.81 989.46 123.73C989.46 125.94 988.8 127.93 987.49 129.71C986.17 131.49 984.22 132.71 981.62 133.38L989.86 146.96H981.86V146.95ZM971.01 128.85H976.78C978.66 128.85 980.05 128.41 980.97 127.53C981.89 126.65 982.35 125.43 982.35 123.86C982.35 122.32 981.89 121.13 980.97 120.28C980.05 119.43 978.65 119.01 976.78 119.01H971.01V128.85Z" fill="#3F526F"/>
<path d="M1010.26 113.75C1012.41 112.01 1015.25 111.13 1018.77 111.13C1021.17 111.13 1023.23 111.54 1024.94 112.35C1026.65 113.17 1027.94 114.27 1028.81 115.66C1029.68 117.05 1030.12 118.63 1030.12 120.39C1030.12 122.41 1029.58 124.11 1028.52 125.5C1027.45 126.89 1026.18 127.83 1024.7 128.31V128.5C1026.61 129.08 1028.1 130.1 1029.16 131.57C1030.23 133.04 1030.76 134.93 1030.76 137.23C1030.76 139.15 1030.31 140.86 1029.4 142.37C1028.49 143.87 1027.16 145.05 1025.4 145.9C1023.64 146.75 1021.53 147.17 1019.06 147.17C1015.34 147.17 1012.32 146.26 1009.98 144.43C1007.64 142.6 1006.41 139.92 1006.28 136.37H1012.99C1013.06 137.94 1013.61 139.19 1014.64 140.14C1015.68 141.08 1017.1 141.56 1018.91 141.56C1020.59 141.56 1021.88 141.1 1022.78 140.19C1023.68 139.28 1024.14 138.1 1024.14 136.66C1024.14 134.74 1023.52 133.37 1022.26 132.53C1021.01 131.7 1019.07 131.28 1016.44 131.28H1015.01V125.76H1016.44C1021.11 125.76 1023.45 124.24 1023.45 121.2C1023.45 119.82 1023.03 118.75 1022.19 117.98C1021.35 117.21 1020.14 116.83 1018.56 116.83C1017.01 116.83 1015.82 117.24 1014.98 118.05C1014.14 118.87 1013.66 119.9 1013.52 121.15H1006.76C1006.94 117.97 1008.1 115.5 1010.26 113.75Z" fill="#E70004"/>
<path d="M1038.53 115.99C1040.59 112.85 1044 111.29 1048.77 111.29C1053.54 111.29 1056.95 112.86 1059.01 115.99C1061.07 119.13 1062.09 123.46 1062.09 129C1062.09 134.57 1061.06 138.94 1059.01 142.1C1056.95 145.27 1053.54 146.85 1048.77 146.85C1044 146.85 1040.59 145.27 1038.53 142.1C1036.47 138.93 1035.45 134.56 1035.45 129C1035.45 123.46 1036.48 119.12 1038.53 115.99ZM1054.82 123.02C1054.51 121.4 1053.88 120.09 1052.94 119.06C1052 118.04 1050.61 117.52 1048.77 117.52C1046.93 117.52 1045.54 118.03 1044.6 119.06C1043.66 120.09 1043.04 121.4 1042.72 123.02C1042.41 124.64 1042.25 126.63 1042.25 129C1042.25 131.43 1042.4 133.47 1042.69 135.12C1042.99 136.77 1043.61 138.1 1044.57 139.1C1045.52 140.11 1046.92 140.61 1048.76 140.61C1050.6 140.61 1052 140.11 1052.95 139.1C1053.9 138.09 1054.53 136.76 1054.83 135.12C1055.13 133.47 1055.27 131.43 1055.27 129C1055.29 126.63 1055.13 124.64 1054.82 123.02Z" fill="#E70004"/>
<path d="M1093.13 132.79H1083.8V142.1H1077.29V132.79H1067.96V126.93H1077.29V117.62H1083.8V126.93H1093.13V132.79Z" fill="#E70004"/>
<path d="M1138.92 113.44L1127.28 135.28V146.94H1120.37V135.28L1108.68 113.44H1116.48L1123.88 128.75L1131.23 113.44H1138.92Z" fill="#E70004"/>
<path d="M1149.83 118.87V127.27H1161.43V132.6H1149.83V141.48H1162.91V146.95H1142.93V113.4H1162.91V118.87H1149.83Z" fill="#E70004"/>
<path d="M1190.29 140.56H1176.57L1174.3 146.94H1167.05L1179.43 113.39H1187.47L1199.86 146.94H1192.56L1190.29 140.56ZM1188.41 135.19L1183.43 121.17L1178.45 135.19H1188.41Z" fill="#E70004"/>
<path d="M1222.26 146.95L1214.66 133.89H1211.4V146.95H1204.49V113.45H1217.42C1220.08 113.45 1222.35 113.91 1224.23 114.82C1226.11 115.73 1227.51 116.96 1228.45 118.52C1229.39 120.07 1229.86 121.81 1229.86 123.73C1229.86 125.94 1229.2 127.93 1227.89 129.71C1226.57 131.49 1224.62 132.71 1222.02 133.38L1230.26 146.96H1222.26V146.95ZM1211.41 128.85H1217.18C1219.06 128.85 1220.45 128.41 1221.37 127.53C1222.29 126.65 1222.75 125.43 1222.75 123.86C1222.75 122.32 1222.29 121.13 1221.37 120.28C1220.45 119.43 1219.05 119.01 1217.18 119.01H1211.41V128.85Z" fill="#E70004"/>
<path d="M1241.53 146.08C1239.61 145.28 1238.08 144.13 1236.97 142.62C1235.85 141.12 1235.28 139.34 1235.24 137.29H1242.64C1242.74 138.67 1243.24 139.75 1244.14 140.55C1245.04 141.35 1246.29 141.75 1247.87 141.75C1249.48 141.75 1250.75 141.37 1251.67 140.62C1252.59 139.87 1253.05 138.88 1253.05 137.67C1253.05 136.68 1252.74 135.86 1252.11 135.22C1251.49 134.58 1250.7 134.08 1249.77 133.71C1248.84 133.34 1247.54 132.93 1245.9 132.49C1243.66 131.85 1241.85 131.22 1240.45 130.59C1239.05 129.97 1237.85 129.02 1236.85 127.76C1235.85 126.5 1235.35 124.81 1235.35 122.7C1235.35 120.72 1235.86 118.99 1236.88 117.52C1237.9 116.05 1239.33 114.92 1241.17 114.14C1243.01 113.36 1245.12 112.96 1247.49 112.96C1251.04 112.96 1253.93 113.8 1256.15 115.48C1258.37 117.16 1259.6 119.5 1259.83 122.51H1252.23C1252.16 121.36 1251.66 120.41 1250.73 119.65C1249.8 118.89 1248.55 118.52 1247.01 118.52C1245.66 118.52 1244.58 118.86 1243.78 119.53C1242.97 120.2 1242.57 121.18 1242.57 122.46C1242.57 123.36 1242.87 124.1 1243.48 124.69C1244.09 125.28 1244.84 125.76 1245.75 126.13C1246.65 126.5 1247.93 126.92 1249.57 127.4C1251.81 128.04 1253.63 128.68 1255.05 129.32C1256.46 129.96 1257.68 130.92 1258.7 132.2C1259.72 133.48 1260.23 135.16 1260.23 137.24C1260.23 139.03 1259.75 140.7 1258.8 142.23C1257.84 143.77 1256.45 144.99 1254.61 145.9C1252.77 146.81 1250.58 147.27 1248.05 147.27C1245.62 147.28 1243.45 146.88 1241.53 146.08Z" fill="#E70004"/>
<path d="M1268.47 146.15C1267.66 145.4 1267.26 144.46 1267.26 143.34C1267.26 142.22 1267.66 141.28 1268.47 140.53C1269.28 139.78 1270.3 139.4 1271.55 139.4C1272.77 139.4 1273.77 139.78 1274.56 140.53C1275.35 141.28 1275.74 142.22 1275.74 143.34C1275.74 144.46 1275.35 145.4 1274.56 146.15C1273.77 146.9 1272.77 147.28 1271.55 147.28C1270.3 147.28 1269.28 146.91 1268.47 146.15ZM1275.11 112.87L1274.32 136.05H1268.5L1267.66 112.87H1275.11Z" fill="#E70004"/>
<path d="M608.18 0.770004H604.09V197.37H608.18V0.770004Z" fill="#CFD6E0"/>
</g>
<defs>
<clipPath id="clip0_1205_31">
<rect width="1276" height="198" fill="white"/>
</clipPath>
</defs>
</svg>
